<svg width="135" height="33" viewBox="0 0 135 33" fill="none" xmlns="http://www.w3.org/2000/svg">
<path d="M128.692 31.8008C126.875 31.8008 125.417 31.3026 124.318 30.3063C123.219 29.2953 122.67 27.7715 122.67 25.7348V21.8667C122.67 19.8887 123.219 18.3869 124.318 17.3612C125.417 16.3209 126.875 15.8008 128.692 15.8008C130.523 15.8008 131.981 16.3209 133.066 17.3612C134.164 18.3869 134.714 19.8887 134.714 21.8667V25.7348C134.714 27.7715 134.164 29.2953 133.066 30.3063C131.981 31.3026 130.523 31.8008 128.692 31.8008ZM128.692 29.2953C129.791 29.2953 130.597 28.9949 131.109 28.3942C131.637 27.7935 131.901 26.9363 131.901 25.8228V21.7348C131.901 20.6066 131.608 19.7568 131.022 19.1854C130.45 18.5993 129.674 18.3063 128.692 18.3063C127.681 18.3063 126.89 18.6066 126.318 19.2074C125.761 19.8081 125.483 20.6506 125.483 21.7348V25.8228C125.483 26.9803 125.747 27.8521 126.274 28.4381C126.816 29.0096 127.622 29.2953 128.692 29.2953Z" fill="white"/>
<path d="M118.557 31.8008C117.971 31.8008 117.472 31.6103 117.062 31.2294C116.667 30.8338 116.469 30.3283 116.469 29.7129C116.469 29.0975 116.667 28.5994 117.062 28.2184C117.472 27.8228 117.971 27.625 118.557 27.625C119.157 27.625 119.656 27.8228 120.051 28.2184C120.447 28.5994 120.645 29.0975 120.645 29.7129C120.645 30.3283 120.447 30.8338 120.051 31.2294C119.656 31.6103 119.157 31.8008 118.557 31.8008Z" fill="white"/>
<path d="M103.156 31.4931V29.6469C103.156 28.5773 103.332 27.6909 103.684 26.9876C104.035 26.2696 104.541 25.6836 105.2 25.2294C105.874 24.7605 106.695 24.3795 107.662 24.0865L109.134 23.625C109.676 23.4491 110.131 23.2367 110.497 22.9876C110.863 22.7239 111.142 22.4088 111.332 22.0425C111.537 21.6762 111.64 21.2587 111.64 20.7898V20.7019C111.64 19.9693 111.391 19.3905 110.893 18.9656C110.394 18.5261 109.713 18.3063 108.849 18.3063C107.999 18.3063 107.31 18.5407 106.783 19.0096C106.27 19.4638 106.013 20.1231 106.013 20.9876V21.3832H103.2V21.0316C103.2 19.918 103.449 18.9729 103.947 18.1964C104.446 17.4198 105.12 16.8264 105.969 16.4162C106.834 16.0059 107.794 15.8008 108.849 15.8008C109.904 15.8008 110.856 16.0059 111.706 16.4162C112.556 16.8118 113.222 17.3759 113.706 18.1085C114.204 18.8264 114.453 19.6762 114.453 20.6579V20.8777C114.453 21.8594 114.248 22.6946 113.838 23.3832C113.442 24.0572 112.9 24.614 112.211 25.0535C111.523 25.4784 110.739 25.8301 109.86 26.1085L108.453 26.548C107.823 26.7385 107.332 26.951 106.98 27.1854C106.629 27.4052 106.38 27.6543 106.233 27.9326C106.101 28.1964 106.035 28.5187 106.035 28.8997V28.9876H114.321V31.4931H103.156Z" fill="white"/>
<path d="M85.0707 32.1082C83.3418 32.1082 81.7154 31.6833 80.1916 30.8335C78.6971 29.9544 77.4957 28.6797 76.5873 27.0093C75.6788 25.339 75.2246 23.317 75.2246 20.9434V20.2401C75.2246 17.8665 75.6788 15.8445 76.5873 14.1742C77.4957 12.5039 78.6971 11.2438 80.1916 10.394C81.6861 9.51484 83.3125 9.07528 85.0707 9.07528C86.3894 9.07528 87.4883 9.23645 88.3675 9.5588C89.2759 9.85184 90.0085 10.2328 90.5653 10.7017C91.122 11.1705 91.5469 11.6687 91.84 12.1962H92.6312V0.723633H98.1697V31.4929H92.7191V28.8555H91.9279C91.4297 29.676 90.6532 30.4233 89.5982 31.0973C88.5726 31.7713 87.0634 32.1082 85.0707 32.1082ZM86.7411 27.2731C88.4407 27.2731 89.862 26.731 91.0048 25.6467C92.1477 24.5332 92.7191 22.9214 92.7191 20.8115V20.372C92.7191 18.2621 92.1477 16.665 91.0048 15.5808C89.8913 14.4672 88.47 13.9104 86.7411 13.9104C85.0414 13.9104 83.6202 14.4672 82.4773 15.5808C81.3345 16.665 80.7631 18.2621 80.7631 20.372V20.8115C80.7631 22.9214 81.3345 24.5332 82.4773 25.6467C83.6202 26.731 85.0414 27.2731 86.7411 27.2731Z" fill="white"/>
<path d="M49.1934 31.4927V9.69052H54.6439V12.5477H55.4351C55.7868 11.7858 56.4461 11.0678 57.4131 10.3938C58.3802 9.69052 59.8454 9.33887 61.8087 9.33887C63.5084 9.33887 64.9882 9.73447 66.2483 10.5257C67.5377 11.2876 68.534 12.3572 69.2373 13.7345C69.9406 15.0825 70.2923 16.6649 70.2923 18.4817V31.4927H64.7538V18.9213C64.7538 17.2803 64.3435 16.0495 63.523 15.229C62.7318 14.4085 61.589 13.9982 60.0945 13.9982C58.3948 13.9982 57.0762 14.5696 56.1384 15.7125C55.2007 16.826 54.7318 18.3938 54.7318 20.4158V31.4927H49.1934Z" fill="white"/>
<path d="M37.5178 31.493V9.69082H43.0562V31.493H37.5178ZM40.287 7.14137C39.2907 7.14137 38.4409 6.81902 37.7376 6.17433C37.0636 5.52964 36.7266 4.67983 36.7266 3.62488C36.7266 2.56994 37.0636 1.72012 37.7376 1.07543C38.4409 0.430743 39.2907 0.108398 40.287 0.108398C41.3126 0.108398 42.1625 0.430743 42.8364 1.07543C43.5104 1.72012 43.8474 2.56994 43.8474 3.62488C43.8474 4.67983 43.5104 5.52964 42.8364 6.17433C42.1625 6.81902 41.3126 7.14137 40.287 7.14137Z" fill="white"/>
<path d="M0 31.4927V9.69052H5.45054V12.0641H6.24175C6.6227 11.3315 7.25275 10.7015 8.13187 10.174C9.01099 9.61726 10.1685 9.33887 11.6044 9.33887C13.1575 9.33887 14.4029 9.64656 15.3407 10.2619C16.2784 10.848 16.9963 11.6246 17.4945 12.5916H18.2857C18.7839 11.6539 19.4872 10.8773 20.3956 10.2619C21.304 9.64656 22.5934 9.33887 24.2637 9.33887C25.6117 9.33887 26.8278 9.63191 27.9121 10.218C29.0256 10.7748 29.9048 11.6392 30.5494 12.8114C31.2234 13.9543 31.5604 15.4048 31.5604 17.163V31.4927H26.022V17.5586C26.022 16.3572 25.7143 15.4634 25.0989 14.8773C24.4835 14.2619 23.619 13.9543 22.5055 13.9543C21.2454 13.9543 20.2637 14.3645 19.5604 15.185C18.8864 15.9762 18.5494 17.1191 18.5494 18.6136V31.4927H13.011V17.5586C13.011 16.3572 12.7033 15.4634 12.0879 14.8773C11.4725 14.2619 10.6081 13.9543 9.4945 13.9543C8.23443 13.9543 7.25274 14.3645 6.54944 15.185C5.87545 15.9762 5.53846 17.1191 5.53846 18.6136V31.4927H0Z" fill="white"/>
</svg>
