<svg width="136" height="32" viewBox="0 0 136 32" fill="none" xmlns="http://www.w3.org/2000/svg">
<path d="M129.334 31.6924C127.518 31.6924 126.06 31.1942 124.961 30.1979C123.862 29.1869 123.312 27.6631 123.312 25.6264V21.7583C123.312 19.7803 123.862 18.2785 124.961 17.2528C126.06 16.2125 127.518 15.6924 129.334 15.6924C131.166 15.6924 132.624 16.2125 133.708 17.2528C134.807 18.2785 135.356 19.7803 135.356 21.7583V25.6264C135.356 27.6631 134.807 29.1869 133.708 30.1979C132.624 31.1942 131.166 31.6924 129.334 31.6924ZM129.334 29.1869C130.433 29.1869 131.239 28.8865 131.752 28.2858C132.28 27.6851 132.543 26.8279 132.543 25.7144V21.6264C132.543 20.4982 132.25 19.6484 131.664 19.077C131.093 18.4909 130.316 18.1979 129.334 18.1979C128.323 18.1979 127.532 18.4982 126.961 19.099C126.404 19.6997 126.126 20.5422 126.126 21.6264V25.7144C126.126 26.8719 126.389 27.7437 126.917 28.3297C127.459 28.9012 128.265 29.1869 129.334 29.1869Z" fill="#161616"/>
<path d="M119.199 31.6924C118.613 31.6924 118.115 31.5019 117.705 31.121C117.309 30.7254 117.111 30.2199 117.111 29.6045C117.111 28.9891 117.309 28.491 117.705 28.11C118.115 27.7144 118.613 27.5166 119.199 27.5166C119.8 27.5166 120.298 27.7144 120.694 28.11C121.089 28.491 121.287 28.9891 121.287 29.6045C121.287 30.2199 121.089 30.7254 120.694 31.121C120.298 31.5019 119.8 31.6924 119.199 31.6924Z" fill="#161616"/>
<path d="M103.799 31.3847V29.5385C103.799 28.4689 103.975 27.5825 104.326 26.8792C104.678 26.1612 105.183 25.5752 105.843 25.121C106.517 24.6521 107.337 24.2711 108.304 23.9781L109.777 23.5166C110.319 23.3407 110.773 23.1283 111.139 22.8792C111.506 22.6155 111.784 22.3004 111.975 21.9341C112.18 21.5678 112.282 21.1503 112.282 20.6814V20.5935C112.282 19.8609 112.033 19.2821 111.535 18.8572C111.037 18.4177 110.356 18.1979 109.491 18.1979C108.641 18.1979 107.953 18.4323 107.425 18.9012C106.912 19.3554 106.656 20.0147 106.656 20.8792V21.2748H103.843V20.9232C103.843 19.8096 104.092 18.8645 104.59 18.088C105.088 17.3114 105.762 16.718 106.612 16.3078C107.476 15.8975 108.436 15.6924 109.491 15.6924C110.546 15.6924 111.498 15.8975 112.348 16.3078C113.198 16.7034 113.865 17.2675 114.348 18.0001C114.846 18.718 115.096 19.5678 115.096 20.5495V20.7693C115.096 21.751 114.89 22.5862 114.48 23.2748C114.085 23.9488 113.542 24.5056 112.854 24.9451C112.165 25.37 111.381 25.7217 110.502 26.0001L109.096 26.4396C108.465 26.6301 107.975 26.8426 107.623 27.077C107.271 27.2968 107.022 27.5459 106.876 27.8243C106.744 28.088 106.678 28.4103 106.678 28.7913V28.8792H114.964V31.3847H103.799Z" fill="#161616"/>
<path d="M85.7133 32.0001C83.9844 32.0001 82.358 31.5752 80.8342 30.7254C79.3397 29.8462 78.1383 28.5715 77.2298 26.9012C76.3214 25.2309 75.8672 23.2089 75.8672 20.8353V20.132C75.8672 17.7583 76.3214 15.7364 77.2298 14.066C78.1383 12.3957 79.3397 11.1356 80.8342 10.2858C82.3287 9.40669 83.9551 8.96712 85.7133 8.96712C87.032 8.96712 88.1309 9.1283 89.01 9.45064C89.9185 9.74368 90.6511 10.1246 91.2078 10.5935C91.7646 11.0624 92.1895 11.5605 92.4826 12.088H93.2738V0.615479H98.8122V31.3847H93.3617V28.7473H92.5705C92.0723 29.5679 91.2957 30.3151 90.2408 30.9891C89.2152 31.6631 87.706 32.0001 85.7133 32.0001ZM87.3837 27.1649C89.0833 27.1649 90.5045 26.6228 91.6474 25.5386C92.7903 24.425 93.3617 22.8133 93.3617 20.7034V20.2638C93.3617 18.1539 92.7903 16.5569 91.6474 15.4726C90.5338 14.3591 89.1126 13.8023 87.3837 13.8023C85.684 13.8023 84.2628 14.3591 83.1199 15.4726C81.9771 16.5569 81.4057 18.1539 81.4057 20.2638V20.7034C81.4057 22.8133 81.9771 24.425 83.1199 25.5386C84.2628 26.6228 85.684 27.1649 87.3837 27.1649Z" fill="#161616"/>
<path d="M49.8359 31.3848V9.58261H55.2865V12.4397H56.0777C56.4294 11.6778 57.0887 10.9599 58.0557 10.2859C59.0228 9.58261 60.488 9.23096 62.4513 9.23096C64.151 9.23096 65.6308 9.62656 66.8909 10.4178C68.1803 11.1797 69.1766 12.2493 69.8799 13.6266C70.5832 14.9745 70.9348 16.557 70.9348 18.3738V31.3848H65.3964V18.8134C65.3964 17.1723 64.9861 15.9416 64.1656 15.1211C63.3744 14.3006 62.2316 13.8903 60.7371 13.8903C59.0374 13.8903 57.7187 14.4617 56.781 15.6046C55.8433 16.7181 55.3744 18.2859 55.3744 20.3079V31.3848H49.8359Z" fill="#161616"/>
<path d="M38.1603 31.3846V9.58242H43.6988V31.3846H38.1603ZM40.9296 7.03297C39.9332 7.03297 39.0834 6.71062 38.3801 6.06593C37.7061 5.42124 37.3691 4.57143 37.3691 3.51649C37.3691 2.46154 37.7061 1.61172 38.3801 0.967033C39.0834 0.322344 39.9332 0 40.9296 0C41.9552 0 42.805 0.322344 43.479 0.967033C44.153 1.61172 44.49 2.46154 44.49 3.51649C44.49 4.57143 44.153 5.42124 43.479 6.06593C42.805 6.71062 41.9552 7.03297 40.9296 7.03297Z" fill="#161616"/>
<path d="M0.642578 31.3848V9.58261H6.09312V11.9562H6.88433C7.26528 11.2236 7.89533 10.5936 8.77445 10.0661C9.65357 9.50935 10.8111 9.23096 12.247 9.23096C13.8001 9.23096 15.0455 9.53865 15.9832 10.154C16.921 10.7401 17.6389 11.5167 18.1371 12.4837H18.9283C19.4265 11.546 20.1297 10.7694 21.0382 10.154C21.9466 9.53865 23.236 9.23096 24.9063 9.23096C26.2543 9.23096 27.4704 9.524 28.5547 10.1101C29.6682 10.6669 30.5473 11.5313 31.192 12.7035C31.866 13.8463 32.203 15.2969 32.203 17.0551V31.3848H26.6646V17.4507C26.6646 16.2493 26.3569 15.3555 25.7415 14.7694C25.1261 14.154 24.2616 13.8463 23.1481 13.8463C21.888 13.8463 20.9063 14.2566 20.203 15.0771C19.529 15.8683 19.192 17.0112 19.192 18.5057V31.3848H13.6536V17.4507C13.6536 16.2493 13.3459 15.3555 12.7305 14.7694C12.1151 14.154 11.2506 13.8463 10.1371 13.8463C8.87701 13.8463 7.89532 14.2566 7.19202 15.0771C6.51803 15.8683 6.18104 17.0112 6.18104 18.5057V31.3848H0.642578Z" fill="#161616"/>
</svg>
