<svg width="240" height="241" viewBox="0 0 240 241" fill="none" xmlns="http://www.w3.org/2000/svg">
<rect x="20.2625" y="32.2625" width="137.188" height="128.771" rx="6.31229" fill="#F7F7F7"/>
<rect x="20.2625" y="32.2625" width="137.188" height="128.771" rx="6.31229" stroke="#161616" stroke-width="2.52491"/>
<rect x="41.3035" y="48.2532" width="137.188" height="128.771" rx="6.31229" fill="#F7F7F7"/>
<rect x="41.3035" y="48.2532" width="137.188" height="128.771" rx="6.31229" stroke="#161616" stroke-width="2.52491"/>
<rect x="62.3464" y="64.2449" width="137.188" height="128.771" rx="6.31229" fill="#F7F7F7"/>
<rect x="62.3464" y="64.2449" width="137.188" height="128.771" rx="6.31229" stroke="#161616" stroke-width="2.52491"/>
<rect x="83.3855" y="80.2356" width="137.188" height="128.771" rx="6.31229" fill="#161616"/>
<rect x="83.3855" y="80.2356" width="137.188" height="128.771" rx="6.31229" stroke="#161616" stroke-width="2.52491"/>
<path d="M184.332 152.876C183.376 152.876 182.609 152.614 182.031 152.09C181.453 151.558 181.164 150.756 181.164 149.685V147.65C181.164 146.61 181.453 145.82 182.031 145.28C182.609 144.733 183.376 144.459 184.332 144.459C185.295 144.459 186.062 144.733 186.632 145.28C187.21 145.82 187.499 146.61 187.499 147.65V149.685C187.499 150.756 187.21 151.558 186.632 152.09C186.062 152.614 185.295 152.876 184.332 152.876ZM184.332 151.558C184.91 151.558 185.334 151.4 185.603 151.084C185.881 150.768 186.02 150.317 186.02 149.731V147.581C186.02 146.987 185.866 146.54 185.557 146.24C185.257 145.932 184.848 145.777 184.332 145.777C183.8 145.777 183.384 145.935 183.083 146.251C182.79 146.567 182.644 147.011 182.644 147.581V149.731C182.644 150.34 182.783 150.799 183.06 151.107C183.345 151.408 183.769 151.558 184.332 151.558Z" fill="white"/>
<path d="M179.001 152.876C178.692 152.876 178.43 152.776 178.214 152.576C178.006 152.368 177.902 152.102 177.902 151.778C177.902 151.454 178.006 151.192 178.214 150.992C178.43 150.784 178.692 150.68 179.001 150.68C179.317 150.68 179.579 150.784 179.787 150.992C179.995 151.192 180.099 151.454 180.099 151.778C180.099 152.102 179.995 152.368 179.787 152.576C179.579 152.776 179.317 152.876 179.001 152.876Z" fill="white"/>
<path d="M170.898 152.714V151.743C170.898 151.18 170.991 150.714 171.176 150.344C171.361 149.966 171.627 149.658 171.974 149.419C172.328 149.173 172.76 148.972 173.268 148.818L174.043 148.575C174.328 148.483 174.567 148.371 174.76 148.24C174.952 148.101 175.099 147.935 175.199 147.743C175.307 147.55 175.361 147.33 175.361 147.084V147.038C175.361 146.652 175.23 146.348 174.968 146.124C174.706 145.893 174.347 145.777 173.893 145.777C173.446 145.777 173.083 145.901 172.806 146.147C172.536 146.386 172.401 146.733 172.401 147.188V147.396H170.922V147.211C170.922 146.625 171.053 146.128 171.315 145.72C171.577 145.311 171.931 144.999 172.378 144.783C172.833 144.567 173.338 144.459 173.893 144.459C174.448 144.459 174.949 144.567 175.396 144.783C175.843 144.991 176.193 145.288 176.448 145.673C176.71 146.051 176.841 146.498 176.841 147.014V147.13C176.841 147.646 176.733 148.086 176.517 148.448C176.309 148.803 176.024 149.095 175.662 149.327C175.299 149.55 174.887 149.735 174.425 149.882L173.685 150.113C173.353 150.213 173.095 150.325 172.91 150.448C172.725 150.564 172.594 150.695 172.517 150.841C172.448 150.98 172.413 151.149 172.413 151.35V151.396H176.771V152.714H170.898Z" fill="white"/>
<path d="M161.211 153.038C160.301 153.038 159.446 152.814 158.644 152.367C157.858 151.905 157.226 151.234 156.748 150.356C156.27 149.477 156.031 148.414 156.031 147.165V146.795C156.031 145.546 156.27 144.483 156.748 143.604C157.226 142.725 157.858 142.063 158.644 141.616C159.43 141.153 160.286 140.922 161.211 140.922C161.904 140.922 162.482 141.007 162.945 141.176C163.423 141.33 163.808 141.531 164.101 141.777C164.394 142.024 164.617 142.286 164.771 142.564H165.188V136.529H168.101V152.714H165.234V151.327H164.818C164.556 151.758 164.147 152.152 163.592 152.506C163.053 152.861 162.259 153.038 161.211 153.038ZM162.089 150.494C162.983 150.494 163.731 150.209 164.332 149.639C164.933 149.053 165.234 148.205 165.234 147.096V146.864C165.234 145.754 164.933 144.914 164.332 144.344C163.746 143.758 162.999 143.465 162.089 143.465C161.195 143.465 160.448 143.758 159.846 144.344C159.245 144.914 158.945 145.754 158.945 146.864V147.096C158.945 148.205 159.245 149.053 159.846 149.639C160.448 150.209 161.195 150.494 162.089 150.494Z" fill="white"/>
<path d="M142.34 152.714V141.245H145.207V142.748H145.623C145.808 142.347 146.155 141.97 146.664 141.615C147.172 141.245 147.943 141.06 148.976 141.06C149.87 141.06 150.648 141.268 151.311 141.684C151.989 142.085 152.514 142.648 152.883 143.372C153.253 144.081 153.438 144.914 153.438 145.869V152.714H150.525V146.101C150.525 145.237 150.309 144.59 149.878 144.158C149.461 143.727 148.86 143.511 148.074 143.511C147.18 143.511 146.486 143.812 145.993 144.413C145.5 144.999 145.253 145.823 145.253 146.887V152.714H142.34Z" fill="white"/>
<path d="M136.195 152.714V141.246H139.109V152.714H136.195ZM137.652 139.905C137.128 139.905 136.681 139.735 136.311 139.396C135.957 139.057 135.779 138.61 135.779 138.055C135.779 137.5 135.957 137.053 136.311 136.714C136.681 136.375 137.128 136.205 137.652 136.205C138.192 136.205 138.639 136.375 138.993 136.714C139.348 137.053 139.525 137.5 139.525 138.055C139.525 138.61 139.348 139.057 138.993 139.396C138.639 139.735 138.192 139.905 137.652 139.905Z" fill="white"/>
<path d="M116.461 152.714V141.245H119.328V142.494H119.744C119.945 142.108 120.276 141.777 120.739 141.499C121.201 141.206 121.81 141.06 122.565 141.06C123.382 141.06 124.037 141.222 124.531 141.546C125.024 141.854 125.401 142.262 125.663 142.771H126.08C126.342 142.278 126.712 141.869 127.19 141.546C127.667 141.222 128.346 141.06 129.224 141.06C129.933 141.06 130.573 141.214 131.143 141.522C131.729 141.815 132.192 142.27 132.531 142.887C132.885 143.488 133.063 144.251 133.063 145.176V152.714H130.149V145.384C130.149 144.752 129.987 144.282 129.664 143.973C129.34 143.65 128.885 143.488 128.299 143.488C127.637 143.488 127.12 143.704 126.75 144.135C126.396 144.551 126.218 145.153 126.218 145.939V152.714H123.305V145.384C123.305 144.752 123.143 144.282 122.819 143.973C122.496 143.65 122.041 143.488 121.455 143.488C120.792 143.488 120.276 143.704 119.906 144.135C119.552 144.551 119.374 145.153 119.374 145.939V152.714H116.461Z" fill="white"/>
</svg>
