<svg width="240" height="241" viewBox="0 0 240 241" fill="none" xmlns="http://www.w3.org/2000/svg">
<path fill-rule="evenodd" clip-rule="evenodd" d="M69.7756 62.2505H69.0088C68.7016 62.2505 68.4014 62.2806 68.111 62.3381L68.4086 63.8424C68.6015 63.8043 68.802 63.784 69.0088 63.784H69.7756V62.2505ZM66.4527 63.0254L67.3058 64.2997C66.9707 64.5241 66.6818 64.8129 66.4574 65.1481L65.1831 64.2949C65.519 63.7932 65.9509 63.3613 66.4527 63.0254ZM64.4082 165.765H65.9417V164.231H64.4082V165.765ZM64.4082 162.698H65.9417V161.164H64.4082V162.698ZM64.4082 159.631H65.9417V158.097H64.4082V159.631ZM64.4082 156.564H65.9417V155.03H64.4082V156.564ZM64.4082 153.496H65.9417V151.963H64.4082V153.496ZM64.4082 150.429H65.9417V148.896H64.4082V150.429ZM64.4082 147.362H65.9417V145.829H64.4082V147.362ZM64.4082 144.295H65.9417V142.762H64.4082V144.295ZM64.4082 141.228H65.9417V139.695H64.4082V141.228ZM64.4082 138.161H65.9417V136.627H64.4082V138.161ZM64.4082 135.094H65.9417V133.56H64.4082V135.094ZM64.4082 132.027H65.9417V130.493H64.4082V132.027ZM64.4082 128.96H65.9417V127.426H64.4082V128.96ZM64.4082 125.893H65.9417V124.359H64.4082V125.893ZM64.4082 122.826H65.9417V121.292H64.4082V122.826ZM64.4082 119.758H65.9417V118.225H64.4082V119.758ZM64.4082 116.691H65.9417V115.158H64.4082V116.691ZM64.4082 113.624H65.9417V112.091H64.4082V113.624ZM64.4082 110.557H65.9417V109.024H64.4082V110.557ZM64.4082 107.49H65.9417V105.957H64.4082V107.49ZM64.4082 104.423H65.9417V102.889H64.4082V104.423ZM64.4082 101.356H65.9417V99.8224H64.4082V101.356ZM64.4082 98.2888H65.9417V96.7553H64.4082V98.2888ZM64.4082 95.2217H65.9417V93.6882H64.4082V95.2217ZM64.4082 92.1546H65.9417V90.6211H64.4082V92.1546ZM64.4082 89.0875H65.9417V87.554H64.4082V89.0875ZM64.4082 86.0205H65.9417V84.4869H64.4082V86.0205ZM64.4082 82.9534H65.9417V81.4198H64.4082V82.9534ZM64.4082 79.8863H65.9417V78.3527H64.4082V79.8863ZM64.4082 76.8192H65.9417V75.2856H64.4082V76.8192ZM64.4082 73.7521H65.9417V72.2185H64.4082V73.7521ZM64.4082 70.685H65.9417V69.1514H64.4082V70.685ZM64.4082 67.6179H65.9417V66.8511C65.9417 66.6443 65.962 66.4438 66.0002 66.2509L64.4958 65.9533C64.4383 66.2436 64.4082 66.5439 64.4082 66.8511V67.6179ZM71.3092 62.2505V63.784H72.8427V62.2505H71.3092ZM74.3763 62.2505V63.784H75.9098V62.2505H74.3763ZM77.4433 62.2505V63.784H78.9769V62.2505H77.4433ZM80.5104 62.2505V63.784H82.044V62.2505H80.5104ZM83.5775 62.2505V63.784H85.1111V62.2505H83.5775ZM86.6446 62.2505V63.784H88.1782V62.2505H86.6446ZM89.7117 62.2505V63.784H91.2453V62.2505H89.7117ZM92.7788 62.2505V63.784H94.3124V62.2505H92.7788ZM95.8459 62.2505V63.784H97.3794V62.2505H95.8459ZM98.913 62.2505V63.784H100.447V62.2505H98.913ZM101.98 62.2505V63.784H103.514V62.2505H101.98ZM105.047 62.2505V63.784H106.581V62.2505H105.047ZM108.114 62.2505V63.784H109.648V62.2505H108.114ZM111.181 62.2505V63.784H112.715V62.2505H111.181ZM114.248 62.2505V63.784H115.782V62.2505H114.248ZM117.316 62.2505V63.784H118.849V62.2505H117.316ZM120.383 62.2505V63.784H121.916V62.2505H120.383ZM123.45 62.2505V63.784H124.983V62.2505H123.45ZM126.517 62.2505V63.784H128.05V62.2505H126.517ZM129.584 62.2505V63.784H131.117V62.2505H129.584ZM132.651 62.2505V63.784H134.185V62.2505H132.651ZM135.718 62.2505V63.784H137.252V62.2505H135.718ZM138.785 62.2505V63.784H140.319V62.2505H138.785ZM141.852 62.2505V63.784H143.386V62.2505H141.852ZM144.919 62.2505V63.784H146.453V62.2505H144.919ZM147.986 62.2505V63.784H149.52V62.2505H147.986ZM151.054 62.2505V63.784H152.587V62.2505H151.054ZM154.121 62.2505V63.784H155.654V62.2505H154.121ZM157.188 62.2505V63.784H158.721V62.2505H157.188ZM160.255 62.2505V63.784H161.788V62.2505H160.255Z" fill="#161616"/>
<rect x="41.7888" y="152.813" width="124.984" height="29.9042" rx="5.7508" fill="#F7F7F7" stroke="#161616" stroke-width="2.30032"/>
<rect x="47.5391" y="156.563" width="96.6134" height="4.60064" rx="2.30032" fill="#161616"/>
<path fill-rule="evenodd" clip-rule="evenodd" d="M57.508 81.4199H56.7413C56.434 81.4199 56.1338 81.45 55.8434 81.5075L56.141 83.0119C56.3339 82.9737 56.5345 82.9535 56.7413 82.9535H57.508V81.4199ZM54.1851 82.1948L55.0382 83.4692C54.7031 83.6935 54.4142 83.9824 54.1899 84.3175L52.9155 83.4644C53.2514 82.9627 53.6834 82.5307 54.1851 82.1948ZM52.1406 184.934H53.6742V183.401H52.1406V184.934ZM52.1406 181.867H53.6742V180.334H52.1406V181.867ZM52.1406 178.8H53.6742V177.267H52.1406V178.8ZM52.1406 175.733H53.6742V174.199H52.1406V175.733ZM52.1406 172.666H53.6742V171.132H52.1406V172.666ZM52.1406 169.599H53.6742V168.065H52.1406V169.599ZM52.1406 166.532H53.6742V164.998H52.1406V166.532ZM52.1406 163.465H53.6742V161.931H52.1406V163.465ZM52.1406 160.398H53.6742V158.864H52.1406V160.398ZM52.1406 157.33H53.6742V155.797H52.1406V157.33ZM52.1406 154.263H53.6742V152.73H52.1406V154.263ZM52.1406 151.196H53.6742V149.663H52.1406V151.196ZM52.1406 148.129H53.6742V146.596H52.1406V148.129ZM52.1406 145.062H53.6742V143.529H52.1406V145.062ZM52.1406 141.995H53.6742V140.461H52.1406V141.995ZM52.1406 138.928H53.6742V137.394H52.1406V138.928ZM52.1406 135.861H53.6742V134.327H52.1406V135.861ZM52.1406 132.794H53.6742V131.26H52.1406V132.794ZM52.1406 129.727H53.6742V128.193H52.1406V129.727ZM52.1406 126.66H53.6742V125.126H52.1406V126.66ZM52.1406 123.592H53.6742V122.059H52.1406V123.592ZM52.1406 120.525H53.6742V118.992H52.1406V120.525ZM52.1406 117.458H53.6742V115.925H52.1406V117.458ZM52.1406 114.391H53.6742V112.858H52.1406V114.391ZM52.1406 111.324H53.6742V109.791H52.1406V111.324ZM52.1406 108.257H53.6742V106.723H52.1406V108.257ZM52.1406 105.19H53.6742V103.656H52.1406V105.19ZM52.1406 102.123H53.6742V100.589H52.1406V102.123ZM52.1406 99.0557H53.6742V97.5222H52.1406V99.0557ZM52.1406 95.9886H53.6742V94.4551H52.1406V95.9886ZM52.1406 92.9215H53.6742V91.388H52.1406V92.9215ZM52.1406 89.8544H53.6742V88.3209H52.1406V89.8544ZM52.1406 86.7873H53.6742V86.0206C53.6742 85.8138 53.6944 85.6132 53.7326 85.4203L52.2282 85.1227C52.1707 85.4131 52.1406 85.7133 52.1406 86.0206V86.7873ZM59.0416 81.4199V82.9535H60.5751V81.4199H59.0416ZM62.1087 81.4199V82.9535H63.6422V81.4199H62.1087ZM65.1758 81.4199V82.9535H66.7093V81.4199H65.1758ZM68.2429 81.4199V82.9535H69.7764V81.4199H68.2429ZM71.31 81.4199V82.9535H72.8435V81.4199H71.31ZM74.377 81.4199V82.9535H75.9106V81.4199H74.377ZM77.4441 81.4199V82.9535H78.9777V81.4199H77.4441ZM80.5112 81.4199V82.9535H82.0448V81.4199H80.5112ZM83.5783 81.4199V82.9535H85.1119V81.4199H83.5783ZM86.6454 81.4199V82.9535H88.179V81.4199H86.6454ZM89.7125 81.4199V82.9535H91.2461V81.4199H89.7125ZM92.7796 81.4199V82.9535H94.3131V81.4199H92.7796ZM95.8467 81.4199V82.9535H97.3802V81.4199H95.8467ZM98.9138 81.4199V82.9535H100.447V81.4199H98.9138ZM101.981 81.4199V82.9535H103.514V81.4199H101.981ZM105.048 81.4199V82.9535H106.582V81.4199H105.048ZM108.115 81.4199V82.9535H109.649V81.4199H108.115ZM111.182 81.4199V82.9535H112.716V81.4199H111.182ZM114.249 81.4199V82.9535H115.783V81.4199H114.249ZM117.316 81.4199V82.9535H118.85V81.4199H117.316ZM120.383 81.4199V82.9535H121.917V81.4199H120.383ZM123.451 81.4199V82.9535H124.984V81.4199H123.451ZM126.518 81.4199V82.9535H128.051V81.4199H126.518ZM129.585 81.4199V82.9535H131.118V81.4199H129.585ZM132.652 81.4199V82.9535H134.185V81.4199H132.652ZM135.719 81.4199V82.9535H137.252V81.4199H135.719ZM138.786 81.4199V82.9535H140.32V81.4199H138.786ZM141.853 81.4199V82.9535H143.387V81.4199H141.853ZM144.92 81.4199V82.9535H146.454V81.4199H144.92ZM147.987 81.4199V82.9535H149.521V81.4199H147.987Z" fill="#161616"/>
<rect x="27.9881" y="168.915" width="124.984" height="29.9042" rx="5.7508" fill="#F7F7F7" stroke="#161616" stroke-width="2.30032"/>
<path fill-rule="evenodd" clip-rule="evenodd" d="M42.1721 98.2891H41.4053C41.0981 98.2891 40.7979 98.3192 40.5075 98.3766L40.8051 99.881C40.998 99.8429 41.1985 99.8226 41.4053 99.8226H42.1721V98.2891ZM38.8491 99.064L39.7023 100.338C39.3671 100.563 39.0783 100.852 38.8539 101.187L37.5796 100.334C37.9155 99.8318 38.3474 99.3999 38.8491 99.064ZM36.8047 201.803H38.3382V200.27H36.8047V201.803ZM36.8047 198.736H38.3382V197.203H36.8047V198.736ZM36.8047 195.669H38.3382V194.136H36.8047V195.669ZM36.8047 192.602H38.3382V191.069H36.8047V192.602ZM36.8047 189.535H38.3382V188.002H36.8047V189.535ZM36.8047 186.468H38.3382V184.934H36.8047V186.468ZM36.8047 183.401H38.3382V181.867H36.8047V183.401ZM36.8047 180.334H38.3382V178.8H36.8047V180.334ZM36.8047 177.267H38.3382V175.733H36.8047V177.267ZM36.8047 174.2H38.3382V172.666H36.8047V174.2ZM36.8047 171.133H38.3382V169.599H36.8047V171.133ZM36.8047 168.065H38.3382V166.532H36.8047V168.065ZM36.8047 164.998H38.3382V163.465H36.8047V164.998ZM36.8047 161.931H38.3382V160.398H36.8047V161.931ZM36.8047 158.864H38.3382V157.331H36.8047V158.864ZM36.8047 155.797H38.3382V154.264H36.8047V155.797ZM36.8047 152.73H38.3382V151.196H36.8047V152.73ZM36.8047 149.663H38.3382V148.129H36.8047V149.663ZM36.8047 146.596H38.3382V145.062H36.8047V146.596ZM36.8047 143.529H38.3382V141.995H36.8047V143.529ZM36.8047 140.462H38.3382V138.928H36.8047V140.462ZM36.8047 137.394H38.3382V135.861H36.8047V137.394ZM36.8047 134.327H38.3382V132.794H36.8047V134.327ZM36.8047 131.26H38.3382V129.727H36.8047V131.26ZM36.8047 128.193H38.3382V126.66H36.8047V128.193ZM36.8047 125.126H38.3382V123.593H36.8047V125.126ZM36.8047 122.059H38.3382V120.525H36.8047V122.059ZM36.8047 118.992H38.3382V117.458H36.8047V118.992ZM36.8047 115.925H38.3382V114.391H36.8047V115.925ZM36.8047 112.858H38.3382V111.324H36.8047V112.858ZM36.8047 109.791H38.3382V108.257H36.8047V109.791ZM36.8047 106.724H38.3382V105.19H36.8047V106.724ZM36.8047 103.656H38.3382V102.89C38.3382 102.683 38.3585 102.482 38.3966 102.289L36.8923 101.992C36.8348 102.282 36.8047 102.582 36.8047 102.89V103.656ZM43.7056 98.2891V99.8226H45.2392V98.2891H43.7056ZM46.7727 98.2891V99.8226H48.3063V98.2891H46.7727ZM49.8398 98.2891V99.8226H51.3734V98.2891H49.8398ZM55.974 98.2891V99.8226H57.5076V98.2891H55.974ZM59.0411 98.2891V99.8226H60.5747V98.2891H59.0411ZM62.1082 98.2891V99.8226H63.6417V98.2891H62.1082ZM68.2424 98.2891V99.8226H69.7759V98.2891H68.2424ZM71.3095 98.2891V99.8226H72.843V98.2891H71.3095ZM74.3766 98.2891V99.8226H75.9101V98.2891H74.3766ZM77.4437 98.2891V99.8226H78.9772V98.2891H77.4437ZM80.5108 98.2891V99.8226H82.0443V98.2891H80.5108ZM83.5779 98.2891V99.8226H85.1114V98.2891H83.5779ZM86.6449 98.2891V99.8226H88.1785V98.2891H86.6449ZM89.712 98.2891V99.8226H91.2456V98.2891H89.712ZM92.7791 98.2891V99.8226H94.3127V98.2891H92.7791ZM95.8462 98.2891V99.8226H97.3798V98.2891H95.8462ZM98.9133 98.2891V99.8226H100.447V98.2891H98.9133ZM101.98 98.2891V99.8226H103.514V98.2891H101.98ZM105.048 98.2891V99.8226H106.581V98.2891H105.048ZM108.115 98.2891V99.8226H109.648V98.2891H108.115ZM111.182 98.2891V99.8226H112.715V98.2891H111.182ZM114.249 98.2891V99.8226H115.782V98.2891H114.249ZM117.316 98.2891V99.8226H118.849V98.2891H117.316ZM120.383 98.2891V99.8226H121.917V98.2891H120.383ZM123.45 98.2891V99.8226H124.984V98.2891H123.45ZM126.517 98.2891V99.8226H128.051V98.2891H126.517ZM129.584 98.2891V99.8226H131.118V98.2891H129.584ZM132.651 98.2891V99.8226H134.185V98.2891H132.651Z" fill="#161616"/>
<rect x="14.1853" y="188.851" width="124.984" height="29.9042" rx="5.7508" fill="#F7F7F7" stroke="#161616" stroke-width="2.30032"/>
<rect x="100.83" y="22.7615" width="124.984" height="117.316" rx="5.7508" fill="#F7F7F7"/>
<rect x="100.83" y="22.7615" width="124.984" height="117.316" rx="5.7508" stroke="#161616" stroke-width="2.30032"/>
<rect x="107.348" y="30.8125" width="78.9776" height="14.5687" rx="7.28435" fill="#161616"/>
<rect x="107.348" y="54.5825" width="96.6134" height="4.60064" rx="2.30032" fill="#161616"/>
<rect x="107.348" y="68.3843" width="102.748" height="4.60064" rx="2.30032" fill="#161616"/>
<rect x="107.348" y="82.1865" width="77.4441" height="4.60064" rx="2.30032" fill="#161616"/>
<rect x="107.348" y="95.9883" width="102.748" height="4.60064" rx="2.30032" fill="#161616"/>
<rect x="19.1699" y="193.369" width="96.6134" height="4.60064" rx="2.30032" fill="#161616"/>
<rect x="31.4375" y="173.433" width="96.6134" height="4.60064" rx="2.30032" fill="#161616"/>
</svg>
