<svg width="240" height="241" viewBox="0 0 240 241" fill="none" xmlns="http://www.w3.org/2000/svg">
<path fill-rule="evenodd" clip-rule="evenodd" d="M40.6377 105.19H41.4045V103.656H40.6377C40.4309 103.656 40.2304 103.636 40.0375 103.598L39.7399 105.102C40.0303 105.16 40.3305 105.19 40.6377 105.19ZM38.9347 103.141L38.0816 104.415C37.5799 104.079 37.1479 103.647 36.812 103.145L38.0863 102.292C38.3107 102.627 38.5996 102.916 38.9347 103.141ZM37.5707 66.0843H36.0371V67.6179H37.5707V66.0843ZM37.5707 69.1514H36.0371V70.685H37.5707V69.1514ZM37.5707 72.2185H36.0371V73.7521H37.5707V72.2185ZM37.5707 75.2856H36.0371V76.8191H37.5707V75.2856ZM37.5707 78.3527H36.0371V79.8862H37.5707V78.3527ZM37.5707 81.4198H36.0371V82.9533H37.5707V81.4198ZM37.5707 84.4869H36.0371V86.0204H37.5707V84.4869ZM37.5707 87.554H36.0371V89.0875H37.5707V87.554ZM37.5707 90.6211H36.0371V92.1546H37.5707V90.6211ZM37.5707 93.6882H36.0371V95.2217H37.5707V93.6882ZM37.5707 96.7553H36.0371V98.2888H37.5707V96.7553ZM37.5707 99.8223H36.0371V100.589C36.0371 100.896 36.0672 101.197 36.1247 101.487L37.6291 101.189C37.5909 100.996 37.5707 100.796 37.5707 100.589V99.8223ZM42.9381 103.656V105.19H44.4716V103.656H42.9381ZM46.0052 103.656V105.19H47.5387V103.656H46.0052ZM49.0723 103.656V105.19H50.6058V103.656H49.0723ZM52.1393 103.656V105.19H52.1406V103.656H52.1393ZM188.626 138.161V136.627H189.393V138.161H188.626ZM52.1406 136.627V138.161H52.1393V136.627H52.1406ZM197.06 136.627H197.827C198.134 136.627 198.435 136.658 198.725 136.715L198.427 138.219C198.234 138.181 198.034 138.161 197.827 138.161H197.06V136.627ZM200.383 137.402L199.53 138.677C199.865 138.901 200.154 139.19 200.378 139.525L201.653 138.672C201.317 138.17 200.885 137.738 200.383 137.402ZM202.428 175.733H200.894V174.199H202.428V175.733ZM202.428 172.666H200.894V171.132H202.428V172.666ZM202.428 169.599H200.894V168.065H202.428V169.599ZM202.428 166.532H200.894V164.998H202.428V166.532ZM202.428 163.465H200.894V161.931H202.428V163.465ZM202.428 160.397H200.894V158.864H202.428V160.397ZM202.428 157.33H200.894V155.797H202.428V157.33ZM202.428 154.263H200.894V152.73H202.428V154.263ZM202.428 151.196H200.894V149.663H202.428V151.196ZM202.428 148.129H200.894V146.595H202.428V148.129ZM202.428 145.062H200.894V143.528H202.428V145.062ZM202.428 141.995H200.894V141.228C200.894 141.021 200.874 140.821 200.836 140.628L202.34 140.33C202.398 140.621 202.428 140.921 202.428 141.228V141.995ZM195.527 136.627V138.161H193.993V136.627H195.527ZM192.46 136.627V138.161H190.926V136.627H192.46ZM41.4045 136.627H40.6377C40.3305 136.627 40.0303 136.658 39.7399 136.715L40.0375 138.219C40.2304 138.181 40.4309 138.161 40.6377 138.161H41.4045V136.627ZM38.0816 137.402L38.9347 138.677C38.5996 138.901 38.3107 139.19 38.0863 139.525L36.812 138.672C37.1479 138.17 37.5799 137.738 38.0816 137.402ZM36.0371 175.733H37.5707V174.199H36.0371V175.733ZM36.0371 172.666H37.5707V171.132H36.0371V172.666ZM36.0371 169.599H37.5707V168.065H36.0371V169.599ZM36.0371 166.532H37.5707V164.998H36.0371V166.532ZM36.0371 163.465H37.5707V161.931H36.0371V163.465ZM36.0371 160.397H37.5707V158.864H36.0371V160.397ZM36.0371 157.33H37.5707V155.797H36.0371V157.33ZM36.0371 154.263H37.5707V152.73H36.0371V154.263ZM36.0371 151.196H37.5707V149.663H36.0371V151.196ZM36.0371 148.129H37.5707V146.595H36.0371V148.129ZM36.0371 145.062H37.5707V143.528H36.0371V145.062ZM36.0371 141.995H37.5707V141.228C37.5707 141.021 37.5909 140.821 37.6291 140.628L36.1247 140.33C36.0672 140.621 36.0371 140.921 36.0371 141.228V141.995ZM42.9381 136.627V138.161H44.4716V136.627H42.9381ZM46.0052 136.627V138.161H47.5387V136.627H46.0052ZM49.0723 136.627V138.161H50.6058V136.627H49.0723ZM199.359 105.19H200.126C200.433 105.19 200.733 105.16 201.024 105.102L200.726 103.598C200.533 103.636 200.333 103.656 200.126 103.656H199.359V105.19ZM202.682 104.415L201.829 103.141C202.164 102.916 202.453 102.627 202.677 102.292L203.952 103.145C203.616 103.647 203.184 104.079 202.682 104.415ZM204.727 66.0845H203.193V67.6181H204.727V66.0845ZM204.727 69.1516H203.193V70.6852H204.727V69.1516ZM204.727 72.2187H203.193V73.7522H204.727V72.2187ZM204.727 75.2858H203.193V76.8193H204.727V75.2858ZM204.727 78.3529H203.193V79.8864H204.727V78.3529ZM204.727 81.42H203.193V82.9535H204.727V81.42ZM204.727 84.4871H203.193V86.0206H204.727V84.4871ZM204.727 87.5542H203.193V89.0877H204.727V87.5542ZM204.727 90.6213H203.193V92.1548H204.727V90.6213ZM204.727 93.6883H203.193V95.2219H204.727V93.6883ZM204.727 96.7554H203.193V98.289H204.727V96.7554ZM204.727 99.8225H203.193V100.589C203.193 100.796 203.173 100.997 203.135 101.19L204.639 101.487C204.696 101.197 204.727 100.897 204.727 100.589V99.8225ZM197.826 105.19V103.656H196.292V105.19H197.826ZM194.759 105.19V103.656H193.225V105.19H194.759ZM191.691 105.19V103.656H190.158V105.19H191.691Z" fill="#161616"/>
<path d="M120.38 87.8538C118.463 87.8538 116.833 87.1829 115.491 85.8411C114.15 84.4992 113.479 82.8698 113.479 80.9529V67.151C113.479 65.234 114.15 63.6046 115.491 62.2628C116.833 60.9209 118.463 60.25 120.38 60.25C122.297 60.25 123.926 60.9209 125.268 62.2628C126.61 63.6046 127.281 65.234 127.281 67.151V80.9529C127.281 82.8698 126.61 84.4992 125.268 85.8411C123.926 87.1829 122.297 87.8538 120.38 87.8538ZM118.079 103.956V96.8826C114.092 96.3459 110.795 94.5631 108.188 91.5344C105.581 88.5056 104.277 84.9784 104.277 80.9529H108.878C108.878 84.135 109.999 86.8475 112.242 89.0903C114.485 91.3331 117.197 92.4545 120.38 92.4545C123.562 92.4545 126.274 91.3331 128.517 89.0903C130.76 86.8475 131.881 84.135 131.881 80.9529H136.482C136.482 84.9784 135.178 88.5056 132.571 91.5344C129.964 94.5631 126.667 96.3459 122.68 96.8826V103.956H118.079Z" fill="#161616"/>
<rect x="57.8909" y="101.218" width="125.04" height="40.7808" rx="6.45782" fill="#F7F7F7"/>
<rect x="57.8909" y="101.218" width="125.04" height="40.7808" rx="6.45782" stroke="#161616" stroke-width="2.30032"/>
<path d="M64.3496 109.299C64.3496 108.402 65.0764 107.675 65.973 107.675H174.85C175.747 107.675 176.474 108.402 176.474 109.299C176.474 110.195 175.747 110.922 174.85 110.922H65.973C65.0764 110.922 64.3496 110.195 64.3496 109.299Z" fill="#161616"/>
<path d="M64.3496 117.415C64.3496 116.519 65.0764 115.792 65.973 115.792H136.318C137.215 115.792 137.942 116.519 137.942 117.415C137.942 118.312 137.215 119.039 136.318 119.039H65.973C65.0764 119.039 64.3496 118.312 64.3496 117.415Z" fill="#161616"/>
<path d="M41.4058 29.2793H29.1374C28.324 29.2793 27.5438 29.6024 26.9686 30.1776C26.3935 30.7528 26.0703 31.5329 26.0703 32.3464V56.8831C26.0703 57.6966 26.3935 58.4767 26.9686 59.0519C27.5438 59.6271 28.324 59.9502 29.1374 59.9502H47.54C48.3534 59.9502 49.1335 59.6271 49.7087 59.0519C50.2839 58.4767 50.6071 57.6966 50.6071 56.8831V38.4806M41.4058 29.2793L50.6071 38.4806M41.4058 29.2793V38.4806H50.6071M44.4729 46.1483H32.2045M44.4729 52.2825H32.2045M35.2716 40.0141H32.2045" stroke="#161616" stroke-width="3.06709" stroke-linecap="round" stroke-linejoin="round"/>
<path d="M217.763 44.6148C217.763 53.0843 210.897 59.9502 202.427 59.9502M217.763 44.6148C217.763 36.1452 210.897 29.2793 202.427 29.2793M217.763 44.6148H187.092M202.427 59.9502C193.958 59.9502 187.092 53.0843 187.092 44.6148M202.427 59.9502C206.263 55.7508 208.443 50.3011 208.561 44.6148C208.443 38.9284 206.263 33.4787 202.427 29.2793M202.427 59.9502C198.591 55.7508 196.412 50.3011 196.293 44.6148C196.412 38.9284 198.591 33.4787 202.427 29.2793M187.092 44.6148C187.092 36.1452 193.958 29.2793 202.427 29.2793" stroke="#161616" stroke-width="3.06709" stroke-linecap="round" stroke-linejoin="round"/>
<path d="M208.563 181.866V188M196.295 181.866V188M188.627 194.135H216.231M191.694 184.933H213.164C214.858 184.933 216.231 186.306 216.231 188V209.47C216.231 211.164 214.858 212.537 213.164 212.537H191.694C190 212.537 188.627 211.164 188.627 209.47V188C188.627 186.306 190 184.933 191.694 184.933Z" stroke="#161616" stroke-width="3.06709" stroke-linecap="round" stroke-linejoin="round"/>
<path d="M30.6697 181.866V212.537M46.0051 181.866V212.537M23.002 197.202H53.6729M23.002 189.534H30.6697M23.002 204.869H30.6697M46.0051 204.869H53.6729M46.0051 189.534H53.6729M26.3451 181.866H50.3297C52.1761 181.866 53.6729 183.363 53.6729 185.209V209.194C53.6729 211.04 52.1761 212.537 50.3297 212.537H26.3451C24.4987 212.537 23.002 211.04 23.002 209.194V185.209C23.002 183.363 24.4987 181.866 26.3451 181.866Z" stroke="#161616" stroke-width="3.06709" stroke-linecap="round" stroke-linejoin="round"/>
</svg>
