<svg width="322" height="80" viewBox="0 0 322 80" fill="none" xmlns="http://www.w3.org/2000/svg">
<path d="M105.813 17.9448C101.761 17.9448 98.7965 20.5644 98.6929 26.3398V28.1962H109.43V40.9538H98.6929V79.0099H81.2707V40.9538H71.7356V28.1962H81.2707V26.3398C81.2707 9.76637 90.8057 1.47448 105.823 1.47448H140.999V79.0099H123.577V17.9448H105.813Z" fill="#FBC61A"/>
<path d="M208.885 58.404H172.278C172.828 63.1996 178.414 66.1492 184 66.1492C186.954 66.1492 190.799 65.3861 193.753 61.9002C195.722 63.54 202.956 68.5522 205.807 70.5118C200.438 77.597 190.789 80 182.684 80C168.112 80 155.509 69.3154 155.509 53.2782C155.509 37.2411 168.112 26.8865 182.684 26.8865C197.256 26.8865 209.206 36.8079 209.206 52.8451C209.206 54.1549 208.988 56.991 208.874 58.404H208.885ZM192.665 48.6991C190.913 42.1605 185.213 41.1704 182.477 41.1704C179.958 41.1704 173.491 42.1502 172.289 48.6991H192.675H192.665Z" fill="#FBC61A"/>
<path d="M228.235 51.5352L211.248 28.1962H231.303L237.874 37.7979L244.123 28.1962H264.064L247.191 51.5352L267.142 79.0202H247.191L237.656 65.056L228.121 79.0202H208.066L228.235 51.5352Z" fill="#FBC61A"/>
<path d="M151.748 66.139H140.99V79.0203H151.748V66.139Z" fill="#E4007F"/>
<path d="M291.073 78.9793H275.962V28.1038H291.073V78.9793Z" fill="#FBC61A"/>
<path d="M320.052 78.9792H304.941V28.1037H320.052V78.9792Z" fill="#FBC61A"/>
<path d="M283.518 18.1102C288.544 18.1102 292.618 14.0561 292.618 9.05508C292.618 4.0541 288.544 0 283.518 0C278.492 0 274.418 4.0541 274.418 9.05508C274.418 14.0561 278.492 18.1102 283.518 18.1102Z" fill="#FBC61A"/>
<path d="M312.496 18.1411C317.522 18.1411 321.596 14.087 321.596 9.08606C321.596 4.08508 317.522 0.0309807 312.496 0.0309807C307.471 0.0309807 303.397 4.08508 303.397 9.08606C303.397 14.087 307.471 18.1411 312.496 18.1411Z" fill="#FBC61A"/>
<path d="M15.9414 28.9039L16.6211 26.4107C17.1784 24.3669 19.7709 23.7412 21.1991 25.3058C21.6303 25.7782 22.2159 26.0814 22.8506 26.1607L29.4123 26.9812L37.1532 27.5115C41.1153 27.783 44.9627 28.9999 48.3623 31.053C51.5295 32.9658 54.2372 35.5645 56.2758 38.6523C58.5759 42.1363 59.9631 46.1429 60.3097 50.3033L60.3468 50.7488C60.5969 53.75 60.3364 56.7718 59.5764 59.686L58.2937 64.6044C57.6605 67.0323 56.4404 69.2674 54.7408 71.1132C52.1584 73.9177 48.6228 75.6582 44.8254 75.9943L32.2315 77.1091C30.3568 77.2751 28.4702 77.2516 26.6003 77.039L19.3323 76.2129C15.1201 75.7341 11.2092 73.793 8.28085 70.7276C5.9419 68.2792 4.33609 65.2241 3.64567 61.9092L3.20587 59.7976C2.33104 55.5972 2.52367 51.2445 3.76612 47.1379L4.36991 45.1422C5.57704 41.1524 7.79036 37.5402 10.7971 34.6529L14.823 30.787C15.3593 30.272 15.7458 29.6212 15.9414 28.9039Z" fill="#FAFAFA"/>
<path d="M33.2546 78.4016C29.3369 78.3913 25.2949 78.381 21.4187 78.2366L20.1854 78.1541C15.0655 77.8241 12.9512 77.69 9.67609 75.1426C-0.532628 66.4073 -1.2063 49.5966 4.56655 39.3658C6.89849 35.1477 10.9923 31.6205 12.8268 30.3417L13.2206 30.0632C14.0187 29.5166 14.7131 29.0422 14.796 28.1965C14.8271 27.7221 14.8478 27.2064 14.8685 26.6804C14.9307 25.1438 14.9826 23.5555 15.3764 22.2045L15.5111 21.6991C15.9775 19.9458 16.5579 17.7491 17.9882 17.7491C18.4131 17.7491 18.838 17.9657 19.2319 18.3885L19.2837 18.4504L19.3251 18.5226C19.6672 19.1414 19.6983 19.8221 19.7293 20.4203C19.7501 20.8328 19.7708 21.2247 19.8744 21.5444C20.7036 24.8137 24.8803 25.2985 27.2952 25.2985C28.1658 25.2985 29.0778 25.2366 29.9484 25.1231C30.7776 25.0819 31.5756 25.0612 32.3944 25.0612C39.3487 25.0612 45.4325 26.4535 48.6558 28.774C56.5636 33.2088 61.9634 42.0473 62.0359 50.762C62.5438 53.7838 61.3104 72.4199 50.4799 77.0712C48.9045 77.9479 44.3443 78.4119 36.9857 78.4119H33.265L33.2546 78.4016ZM31.0056 75.5552C31.9694 75.5552 33.0162 75.5655 34.1045 75.5758C35.2963 75.5861 36.5504 75.6067 37.8045 75.6067C41.8258 75.6067 46.7902 75.4727 49.4642 74.4104C58.9267 69.9654 59.6003 52.6906 59.0614 50.2566C58.1597 37.0556 47.8266 27.9077 33.9179 27.9077H33.4101C32.923 27.8665 32.5084 27.8562 32.1042 27.8562C31.1818 27.8562 30.2697 27.9387 29.3784 28.0212C28.4767 28.1037 27.5543 28.1862 26.6008 28.1862C25.6473 28.1862 24.8493 28.1037 24.0408 27.949C21.4083 27.4333 19.263 26.1648 17.8638 24.2981C17.6047 25.876 17.7912 27.7118 17.9571 29.2484C17.9571 30.5479 16.9103 31.1152 16.1641 31.538C15.9257 31.6721 15.6873 31.7958 15.5008 31.9402C11.8733 34.3845 5.64442 39.799 4.26599 48.8747C3.23993 55.5577 3.95506 68.3771 13.117 74.0907C15.1795 75.5448 25.4193 75.5758 29.793 75.5861C30.1764 75.5861 30.5806 75.5861 31.0056 75.5861V75.5552Z" fill="#FBC61A"/>
<path d="M23.077 53.7733C23.077 55.4441 21.7193 56.7951 20.0403 56.7951C18.3613 56.7951 17.0036 55.4441 17.0036 53.7733C17.0036 52.1026 18.3613 50.7515 20.0403 50.7515C21.7193 50.7515 23.077 52.1026 23.077 53.7733Z" fill="#754C29"/>
<path d="M47.2052 53.7733C47.2052 55.4441 45.8475 56.7951 44.1685 56.7951C42.4895 56.7951 41.1318 55.4441 41.1318 53.7733C41.1318 52.1026 42.4895 50.7515 44.1685 50.7515C45.8475 50.7515 47.2052 52.1026 47.2052 53.7733Z" fill="#754C29"/>
<path d="M24.8696 63.0143H39.3276C40.022 63.0143 40.2604 62.1068 39.6593 61.7664L34.8606 59.085C32.9847 58.033 30.6839 58.0743 28.8391 59.1778L24.5172 61.7767C23.9368 62.1274 24.1855 63.0143 24.8592 63.0143" fill="#FBC61A"/>
<path d="M37.97 64.1795H26.2585C26.0823 64.1795 26.0201 64.4064 26.1756 64.4889L29.4818 66.3349C31.2437 67.3147 33.3891 67.2838 35.1199 66.2421L38.0529 64.4786C38.198 64.3857 38.1359 64.1692 37.97 64.1692" fill="#FBC61A"/>
</svg>
