<svg width="1424" height="144" viewBox="0 -2 1424 146" fill="none" xmlns="http://www.w3.org/2000/svg">
<path d="M55.7129 143.411C45.3629 143.411 36.0882 141.731 27.8889 138.371C19.6896 135.01 13.1032 130.037 8.12984 123.451C3.29089 116.864 0.736995 108.934 0.468164 99.6592H37.1635C37.7012 104.901 39.5158 108.934 42.6074 111.757C45.6989 114.445 49.7314 115.789 54.7047 115.789C59.8125 115.789 63.845 114.646 66.8021 112.361C69.7592 109.942 71.2378 106.649 71.2378 102.482C71.2378 98.9871 70.0281 96.0972 67.6086 93.8121C65.3235 91.5271 62.4336 89.6452 58.9388 88.1667C55.5784 86.6881 50.7395 85.0079 44.422 83.1261C35.2817 80.3034 27.8217 77.4807 22.0418 74.6579C16.262 71.8352 11.2886 67.6683 7.12172 62.1573C2.95485 56.6463 0.87141 49.4551 0.87141 40.5837C0.87141 27.411 5.64315 17.1282 15.1866 9.73535C24.7301 2.20809 37.1635 -1.55554 52.4869 -1.55554C68.0791 -1.55554 80.6469 2.20809 90.1904 9.73535C99.7339 17.1282 104.842 27.4782 105.514 40.7853H68.2135C67.9446 36.2152 66.2645 32.6532 63.1729 30.0993C60.0813 27.411 56.1161 26.0668 51.2771 26.0668C47.1103 26.0668 43.7499 27.2093 41.196 29.4944C38.6421 31.645 37.3652 34.8038 37.3652 38.9707C37.3652 43.5408 39.5158 47.1028 43.8171 49.6567C48.1184 52.2106 54.8392 54.9661 63.9794 57.9232C73.1196 61.0148 80.5125 63.9719 86.1579 66.7946C91.9378 69.6174 96.9111 73.717 101.078 79.0936C105.245 84.4703 107.328 91.3926 107.328 99.8608C107.328 107.926 105.245 115.251 101.078 121.838C97.0456 128.424 91.1313 133.666 83.3352 137.564C75.5391 141.462 66.3317 143.411 55.7129 143.411ZM278.755 0.460692V142H244.278V57.1167L212.623 142H184.799L152.942 56.9151V142H118.465V0.460692H159.193L198.912 98.4494L238.229 0.460692H278.755ZM381.576 116.999H328.751L320.283 142H284.193L335.405 0.460692H375.326L426.538 142H390.045L381.576 116.999ZM372.705 90.3845L355.164 38.5674L337.824 90.3845H372.705ZM504.225 142L474.788 88.5699H466.521V142H432.044V0.460692H489.909C501.066 0.460692 510.542 2.40971 518.338 6.30775C526.269 10.2058 532.183 15.5824 536.081 22.4376C539.979 29.1584 541.928 36.6856 541.928 45.0194C541.928 54.4284 539.24 62.8294 533.863 70.2222C528.621 77.6151 520.825 82.8573 510.475 85.9488L543.138 142H504.225ZM466.521 64.1735H487.893C494.211 64.1735 498.915 62.6278 502.007 59.5362C505.233 56.4447 506.846 52.0762 506.846 46.4307C506.846 41.0541 505.233 36.82 502.007 33.7285C498.915 30.6369 494.211 29.0912 487.893 29.0912H466.521V64.1735ZM655.31 0.460692V28.083H617.808V142H583.33V28.083H545.828V0.460692H655.31ZM713.744 143.411C703.394 143.411 694.119 141.731 685.92 138.371C677.721 135.01 671.134 130.037 666.161 123.451C661.322 116.864 658.768 108.934 658.499 99.6592H695.195C695.732 104.901 697.547 108.934 700.638 111.757C703.73 114.445 707.763 115.789 712.736 115.789C717.844 115.789 721.876 114.646 724.833 112.361C727.79 109.942 729.269 106.649 729.269 102.482C729.269 98.9871 728.059 96.0972 725.64 93.8121C723.355 91.5271 720.465 89.6452 716.97 88.1667C713.61 86.6881 708.771 85.0079 702.453 83.1261C693.313 80.3034 685.853 77.4807 680.073 74.6579C674.293 71.8352 669.32 67.6683 665.153 62.1573C660.986 56.6463 658.903 49.4551 658.903 40.5837C658.903 27.411 663.674 17.1282 673.218 9.73535C682.761 2.20809 695.195 -1.55554 710.518 -1.55554C726.11 -1.55554 738.678 2.20809 748.222 9.73535C757.765 17.1282 762.873 27.4782 763.545 40.7853H726.245C725.976 36.2152 724.296 32.6532 721.204 30.0993C718.112 27.411 714.147 26.0668 709.308 26.0668C705.141 26.0668 701.781 27.2093 699.227 29.4944C696.673 31.645 695.396 34.8038 695.396 38.9707C695.396 43.5408 697.547 47.1028 701.848 49.6567C706.15 52.2106 712.87 54.9661 722.011 57.9232C731.151 61.0148 738.544 63.9719 744.189 66.7946C749.969 69.6174 754.942 73.717 759.109 79.0936C763.276 84.4703 765.359 91.3926 765.359 99.8608C765.359 107.926 763.276 115.251 759.109 121.838C755.077 128.424 749.162 133.666 741.366 137.564C733.57 141.462 724.363 143.411 713.744 143.411ZM770.649 71.0287C770.649 57.0495 773.673 44.6161 779.722 33.7285C785.771 22.7064 794.172 14.1711 804.925 8.12236C815.812 1.93926 828.111 -1.1523 841.822 -1.1523C858.624 -1.1523 873.006 3.28341 884.969 12.1548C896.932 21.0262 904.93 33.1236 908.962 48.447H871.057C868.234 42.5327 864.202 38.0298 858.96 34.9382C853.852 31.8467 848.005 30.3009 841.419 30.3009C830.8 30.3009 822.197 33.9973 815.611 41.3902C809.024 48.783 805.731 58.6625 805.731 71.0287C805.731 83.3949 809.024 93.2745 815.611 100.667C822.197 108.06 830.8 111.757 841.419 111.757C848.005 111.757 853.852 110.211 858.96 107.119C864.202 104.028 868.234 99.5248 871.057 93.6105H908.962C904.93 108.934 896.932 121.031 884.969 129.903C873.006 138.64 858.624 143.008 841.822 143.008C828.111 143.008 815.812 139.984 804.925 133.935C794.172 127.752 785.771 119.217 779.722 108.329C773.673 97.4413 770.649 85.0079 770.649 71.0287ZM992.176 142L962.739 88.5699H954.472V142H919.995V0.460692H977.861C989.017 0.460692 998.493 2.40971 1006.29 6.30775C1014.22 10.2058 1020.13 15.5824 1024.03 22.4376C1027.93 29.1584 1029.88 36.6856 1029.88 45.0194C1029.88 54.4284 1027.19 62.8294 1021.81 70.2222C1016.57 77.6151 1008.78 82.8573 998.426 85.9488L1031.09 142H992.176ZM954.472 64.1735H975.844C982.162 64.1735 986.866 62.6278 989.958 59.5362C993.184 56.4447 994.797 52.0762 994.797 46.4307C994.797 41.0541 993.184 36.82 989.958 33.7285C986.866 30.6369 982.162 29.0912 975.844 29.0912H954.472V64.1735ZM1075.92 0.460692V142H1041.44V0.460692H1075.92ZM1176.51 69.4157C1184.71 71.1631 1191.3 75.2628 1196.27 81.7147C1201.25 88.0323 1203.73 95.2907 1203.73 103.49C1203.73 115.319 1199.56 124.728 1191.23 131.717C1183.03 138.572 1171.54 142 1156.75 142H1090.82V0.460692H1154.54C1168.92 0.460692 1180.14 3.75386 1188.21 10.3402C1196.41 16.9266 1200.51 25.8652 1200.51 37.1561C1200.51 45.4898 1198.29 52.4122 1193.85 57.9232C1189.55 63.4343 1183.77 67.2651 1176.51 69.4157ZM1125.3 57.7216H1147.88C1153.53 57.7216 1157.83 56.5119 1160.79 54.0924C1163.88 51.5385 1165.42 47.8421 1165.42 43.0031C1165.42 38.1642 1163.88 34.4678 1160.79 31.9139C1157.83 29.36 1153.53 28.083 1147.88 28.083H1125.3V57.7216ZM1150.71 114.176C1156.48 114.176 1160.92 112.899 1164.01 110.345C1167.24 107.657 1168.85 103.826 1168.85 98.8527C1168.85 93.8793 1167.17 89.9813 1163.81 87.1586C1160.58 84.3358 1156.08 82.9245 1150.3 82.9245H1125.3V114.176H1150.71ZM1248.13 28.083V56.7135H1294.3V83.3277H1248.13V114.378H1300.35V142H1213.65V0.460692H1300.35V28.083H1248.13ZM1384.83 142L1355.39 88.5699H1347.13V142H1312.65V0.460692H1370.51C1381.67 0.460692 1391.15 2.40971 1398.94 6.30775C1406.87 10.2058 1412.79 15.5824 1416.69 22.4376C1420.58 29.1584 1422.53 36.6856 1422.53 45.0194C1422.53 54.4284 1419.84 62.8294 1414.47 70.2222C1409.22 77.6151 1401.43 82.8573 1391.08 85.9488L1423.74 142H1384.83ZM1347.13 64.1735H1368.5C1374.81 64.1735 1379.52 62.6278 1382.61 59.5362C1385.84 56.4447 1387.45 52.0762 1387.45 46.4307C1387.45 41.0541 1385.84 36.82 1382.61 33.7285C1379.52 30.6369 1374.81 29.0912 1368.5 29.0912H1347.13V64.1735Z" fill="#FCFCFC"/>
</svg>
