<svg width="18" height="40" viewBox="0 0 18 40" fill="none" xmlns="http://www.w3.org/2000/svg">
<path d="M7.049 26.3415H10.9514C14.7075 26.3415 17.7807 23.2683 17.7807 19.5122V6.82927C17.7807 3.07317 14.7075 0 10.9514 0H7.049C3.2929 0 0.219727 3.07317 0.219727 6.82927V19.5122C0.219727 23.2683 3.2929 26.3415 7.049 26.3415ZM2.17095 6.82927C2.17095 4.14634 4.36607 1.95122 7.049 1.95122H10.9514C13.6344 1.95122 15.8295 4.14634 15.8295 6.82927V19.5122C15.8295 22.1951 13.6344 24.3902 10.9514 24.3902H7.049C4.36607 24.3902 2.17095 22.1951 2.17095 19.5122V6.82927Z" fill="#FCFCFC"/>
<path d="M9.00002 10.2439C9.53661 10.2439 9.97563 9.80487 9.97563 9.26828V6.34145C9.97563 5.80487 9.53661 5.36584 9.00002 5.36584C8.46344 5.36584 8.02441 5.80487 8.02441 6.34145V9.26828C8.02441 9.80487 8.46344 10.2439 9.00002 10.2439Z" fill="#FCFCFC"/>
<path d="M8.9996 29.2683C8.46301 29.2683 8.02399 29.7073 8.02399 30.2439V36.6829L7.2435 35.9025C6.85326 35.5122 6.26789 35.5122 5.87764 35.9025C5.4874 36.2927 5.4874 36.8781 5.87764 37.2683L8.31667 39.7073C8.36545 39.7561 8.41423 39.8049 8.46301 39.8049C8.46301 39.8049 8.51179 39.8537 8.56057 39.8537C8.60935 39.8537 8.60935 39.9025 8.65813 39.9025C8.70691 39.9025 8.70691 39.9025 8.75569 39.9512C8.80447 39.9512 8.80447 39.9512 8.85325 40C8.90204 40 8.99959 40 9.04838 40C9.09716 40 9.19472 40 9.2435 40C9.29228 40 9.29228 40 9.34106 39.9512C9.38984 39.9512 9.38984 39.9512 9.43862 39.9025C9.4874 39.9025 9.4874 39.8537 9.53618 39.8537C9.53618 39.8537 9.58496 39.8537 9.58496 39.8049C9.63374 39.7561 9.68252 39.7073 9.7313 39.7073L12.1703 37.2683C12.5606 36.8781 12.5606 36.2927 12.1703 35.9025C11.7801 35.5122 11.1947 35.5122 10.8045 35.9025L9.97521 36.6829V30.2439C9.97521 29.7073 9.53618 29.2683 8.9996 29.2683Z" fill="#FCFCFC"/>
</svg>
