<svg width="137" height="18" viewBox="0 0 137 18" fill="none" xmlns="http://www.w3.org/2000/svg">
<path d="M15.172 0.271999L8.86 17H6.34L0.028 0.271999H2.356L7.612 14.696L12.868 0.271999H15.172ZM19.7508 0.271999V17H17.5668V0.271999H19.7508ZM22.657 8.624C22.657 6.992 23.025 5.528 23.761 4.232C24.497 2.92 25.497 1.896 26.761 1.16C28.041 0.423999 29.457 0.0559993 31.009 0.0559993C32.833 0.0559993 34.425 0.495999 35.785 1.376C37.145 2.256 38.137 3.504 38.761 5.12H36.145C35.681 4.112 35.009 3.336 34.129 2.792C33.265 2.248 32.225 1.976 31.009 1.976C29.841 1.976 28.793 2.248 27.865 2.792C26.937 3.336 26.209 4.112 25.681 5.12C25.153 6.112 24.889 7.28 24.889 8.624C24.889 9.952 25.153 11.12 25.681 12.128C26.209 13.12 26.937 13.888 27.865 14.432C28.793 14.976 29.841 15.248 31.009 15.248C32.225 15.248 33.265 14.984 34.129 14.456C35.009 13.912 35.681 13.136 36.145 12.128H38.761C38.137 13.728 37.145 14.968 35.785 15.848C34.425 16.712 32.833 17.144 31.009 17.144C29.457 17.144 28.041 16.784 26.761 16.064C25.497 15.328 24.497 14.312 23.761 13.016C23.025 11.72 22.657 10.256 22.657 8.624ZM44.1961 2.048V7.64H50.2921V9.44H44.1961V15.2H51.0121V17H42.0121V0.248H51.0121V2.048H44.1961ZM67.4688 17H65.2848L56.5008 3.68V17H54.3168V0.248H56.5008L65.2848 13.544V0.248H67.4688V17ZM81.4878 0.271999V2.048H76.9278V17H74.7438V2.048H70.1598V0.271999H81.4878ZM99.6466 17L92.7586 9.368V17H90.5746V0.271999H92.7586V8.024L99.6706 0.271999H102.431L94.8466 8.648L102.503 17H99.6466ZM112.526 17.168C110.974 17.168 109.558 16.808 108.278 16.088C106.998 15.352 105.982 14.336 105.23 13.04C104.494 11.728 104.126 10.256 104.126 8.624C104.126 6.992 104.494 5.528 105.23 4.232C105.982 2.92 106.998 1.904 108.278 1.184C109.558 0.447999 110.974 0.079999 112.526 0.079999C114.094 0.079999 115.518 0.447999 116.798 1.184C118.078 1.904 119.086 2.912 119.822 4.208C120.558 5.504 120.926 6.976 120.926 8.624C120.926 10.272 120.558 11.744 119.822 13.04C119.086 14.336 118.078 15.352 116.798 16.088C115.518 16.808 114.094 17.168 112.526 17.168ZM112.526 15.272C113.694 15.272 114.742 15 115.67 14.456C116.614 13.912 117.35 13.136 117.878 12.128C118.422 11.12 118.694 9.952 118.694 8.624C118.694 7.28 118.422 6.112 117.878 5.12C117.35 4.112 116.622 3.336 115.694 2.792C114.766 2.248 113.71 1.976 112.526 1.976C111.342 1.976 110.286 2.248 109.358 2.792C108.43 3.336 107.694 4.112 107.15 5.12C106.622 6.112 106.358 7.28 106.358 8.624C106.358 9.952 106.622 11.12 107.15 12.128C107.694 13.136 108.43 13.912 109.358 14.456C110.302 15 111.358 15.272 112.526 15.272ZM136.697 0.271999V17H134.513V9.416H125.993V17H123.809V0.271999H125.993V7.616H134.513V0.271999H136.697Z" fill="#FCFCFC"/>
</svg>
