<svg width="106" height="16" viewBox="0 0 106 16" fill="none" xmlns="http://www.w3.org/2000/svg">
<path d="M13.06 1.06L7.8 15H5.7L0.44 1.06H2.38L6.76 13.08L11.14 1.06H13.06ZM15.8756 1.06V15H14.0556V1.06H15.8756ZM17.2975 8.02C17.2975 6.66 17.6042 5.44 18.2175 4.36C18.8308 3.26667 19.6642 2.41333 20.7175 1.8C21.7842 1.18667 22.9642 0.879999 24.2575 0.879999C25.7775 0.879999 27.1042 1.24667 28.2375 1.98C29.3708 2.71333 30.1975 3.75333 30.7175 5.1H28.5375C28.1508 4.26 27.5908 3.61333 26.8575 3.16C26.1375 2.70667 25.2708 2.48 24.2575 2.48C23.2842 2.48 22.4108 2.70667 21.6375 3.16C20.8642 3.61333 20.2575 4.26 19.8175 5.1C19.3775 5.92667 19.1575 6.9 19.1575 8.02C19.1575 9.12667 19.3775 10.1 19.8175 10.94C20.2575 11.7667 20.8642 12.4067 21.6375 12.86C22.4108 13.3133 23.2842 13.54 24.2575 13.54C25.2708 13.54 26.1375 13.32 26.8575 12.88C27.5908 12.4267 28.1508 11.78 28.5375 10.94H30.7175C30.1975 12.2733 29.3708 13.3067 28.2375 14.04C27.1042 14.76 25.7775 15.12 24.2575 15.12C22.9642 15.12 21.7842 14.82 20.7175 14.22C19.6642 13.6067 18.8308 12.76 18.2175 11.68C17.6042 10.6 17.2975 9.38 17.2975 8.02ZM34.2467 2.54V7.2H39.3267V8.7H34.2467V13.5H39.9267V15H32.4267V1.04H39.9267V2.54H34.2467ZM52.6406 15H50.8206L43.5006 3.9V15H41.6806V1.04H43.5006L50.8206 12.12V1.04H52.6406V15ZM63.3231 1.06V2.54H59.5231V15H57.7031V2.54H53.8831V1.06H63.3231ZM76.4555 15L70.7155 8.64V15H68.8955V1.06H70.7155V7.52L76.4755 1.06H78.7755L72.4555 8.04L78.8355 15H76.4555ZM86.1881 15.14C84.8948 15.14 83.7148 14.84 82.6481 14.24C81.5815 13.6267 80.7348 12.78 80.1081 11.7C79.4948 10.6067 79.1881 9.38 79.1881 8.02C79.1881 6.66 79.4948 5.44 80.1081 4.36C80.7348 3.26667 81.5815 2.42 82.6481 1.82C83.7148 1.20667 84.8948 0.899999 86.1881 0.899999C87.4948 0.899999 88.6815 1.20667 89.7481 1.82C90.8148 2.42 91.6548 3.26 92.2681 4.34C92.8815 5.42 93.1881 6.64667 93.1881 8.02C93.1881 9.39333 92.8815 10.62 92.2681 11.7C91.6548 12.78 90.8148 13.6267 89.7481 14.24C88.6815 14.84 87.4948 15.14 86.1881 15.14ZM86.1881 13.56C87.1615 13.56 88.0348 13.3333 88.8081 12.88C89.5948 12.4267 90.2081 11.78 90.6481 10.94C91.1015 10.1 91.3281 9.12667 91.3281 8.02C91.3281 6.9 91.1015 5.92667 90.6481 5.1C90.2081 4.26 89.6015 3.61333 88.8281 3.16C88.0548 2.70667 87.1748 2.48 86.1881 2.48C85.2015 2.48 84.3215 2.70667 83.5481 3.16C82.7748 3.61333 82.1615 4.26 81.7081 5.1C81.2681 5.92667 81.0481 6.9 81.0481 8.02C81.0481 9.12667 81.2681 10.1 81.7081 10.94C82.1615 11.78 82.7748 12.4267 83.5481 12.88C84.3348 13.3333 85.2148 13.56 86.1881 13.56ZM105.331 1.06V15H103.511V8.68H96.4108V15H94.5908V1.06H96.4108V7.18H103.511V1.06H105.331Z" fill="black"/>
</svg>
